PathFileType	4	(X/Y/Z)	F:\MotionCapture\20160217\3\Generated_files\EMG_test01-Dynamic.trc
DataRate	CameraRate	NumFrames	NumMarkers	Units	OrigDataRate	OrigDataStartFrame	OrigNumFrames
120.00	120.00	       15	39	mm	120.00	88	       701
Frame#	Time	Top.Head			Front.Head			Rear.Head			R.Shoulder			R.Offset			R.Elbow			R.Wrist			L.Shoulder			L.Elbow			L.Wrist			R.ASIS			L.ASIS			V.Sacral			R.Thigh			R.Knee			R.Shank			R.Ankle			R.Heel			R.Toe			L.Thigh			L.Knee			L.Shank			L.Ankle			L.Heel			L.Toe			R1			R2			R3			R4			R5			R6			R7			L1			L2			L3			L4			L5			L6			L7			V_Mid_ASIS			V_Pelvis_Origin			V_R.Hip_JC			V_L.Hip_JC			V_R.Knee_JC			V_L.Knee_JC			V_R.Ankle_JC			V_L.Ankle_JC			V_Mid_Hip			V_Mid_Shoulder			V_R.Hand			V_L.Hand			V_R.Toe_Offset_Static			V_L.Toe_Offset_Static			V_R.Toe_Offset			V_L.Toe_Offset			
		X1	Y1	Z1	X2	Y2	Z2	X3	Y3	Z3	X4	Y4	Z4	X5	Y5	Z5	X6	Y6	Z6	X7	Y7	Z7	X8	Y8	Z8	X9	Y9	Z9	X10	Y10	Z10	X11	Y11	Z11	X12	Y12	Z12	X13	Y13	Z13	X14	Y14	Z14	X15	Y15	Z15	X16	Y16	Z16	X17	Y17	Z17	X18	Y18	Z18	X19	Y19	Z19	X20	Y20	Z20	X21	Y21	Z21	X22	Y22	Z22	X23	Y23	Z23	X24	Y24	Z24	X25	Y25	Z25	X26	Y26	Z26	X27	Y27	Z27	X28	Y28	Z28	X29	Y29	Z29	X30	Y30	Z30	X31	Y31	Z31	X32	Y32	Z32	X33	Y33	Z33	X34	Y34	Z34	X35	Y35	Z35	X36	Y36	Z36	X37	Y37	Z37	X38	Y38	Z38	X39	Y39	Z39	

88	0.725																																																																																																																																																																						-3475.97266	332.75040	36.12249	-3503.84155	74.09959	39.91250	-3544.27100	424.87244	1420.35339	-3519.07568	359.94034	39.19582	-3622.79272	380.25781	26.53842	-3560.03418	395.32590	37.33543	-3483.48315	352.68674	939.88165	-3508.92944	323.31308	44.37156	-3456.83228	86.48908	38.91425	-3555.27246	301.60437	320.96661	-3658.88037	360.87317	52.23544	-3367.81226	438.04071	884.20209	-3513.80688	501.71381	1087.82104	-3564.99341	369.51425	460.60291	-3725.64746	296.44281	28.66615	-3460.57935	99.96628	570.19836	-3560.95874	214.75421	1729.60181	-3470.95410	307.28342	613.64014	-3498.55811	102.98759	48.36381	-3589.33423	86.32699	7.46981	
89	0.733																																																																																																																																																																						-3476.08032	332.85376	36.29955	-3499.78345	101.49068	49.93789	-3502.32959	76.04890	36.37666	-3543.33838	423.97208	1419.84277	-3519.06250	360.04013	39.01777	-3622.83765	380.08737	26.58452	-3442.17017	193.29384	1659.57959	-3560.16992	396.54486	39.24743	-3509.08057	323.20557	44.27912	-3456.77515	86.68400	38.94044	-3554.95044	301.61649	321.04019	-3658.87524	360.90738	52.19699	-3365.17017	436.23502	883.96503	-3512.12842	500.65408	1087.91296	-3564.79492	368.98932	460.52939	-3725.39282	298.73114	28.12772	-3459.10889	98.69295	569.41400	-3560.06348	214.14262	1729.22644	-3470.48486	306.06839	613.37653	-3589.35254	86.42016	7.54445	
90	0.742																																																																																																																																																																						-3476.11182	332.70349	36.23080	-3512.76489	61.71432	941.74512	-3499.79712	101.48185	50.06467	-3502.28052	76.18869	36.41595	-3541.42432	422.58862	1419.81787	-3519.04224	360.02530	39.01387	-3622.79346	380.38055	26.38154	-3441.47656	192.67958	1659.26807	-3482.35156	349.66721	939.75085	-3560.22217	396.82202	39.29605	-3509.22827	323.17468	44.36186	-3456.81860	86.50403	39.04984	-3554.90015	301.51514	321.06665	-3658.97925	360.96759	52.26488	-3362.96484	436.42346	884.60016	-3510.59204	499.28836	1087.57239	-3564.55518	368.39108	460.38843	-3725.40894	299.18445	28.21913	-3469.50903	305.15085	613.11578	-3589.32642	86.44949	7.50725	
91	0.750																																																																																																																																																																						-3476.26440	332.59711	36.25646	-3514.49390	58.60883	940.90918	-3499.80249	101.49058	50.28464	-3539.78516	421.05551	1419.68005	-3519.04858	359.87015	38.85536	-3622.75317	380.67322	26.32319	-3439.85400	191.90796	1659.01746	-3560.24414	396.84842	39.21919	-3550.22778	44.03304	42.19495	-3509.38452	323.09732	44.29798	-3456.75244	85.55087	39.54014	-3513.26367	63.10284	46.06886	-3554.76123	301.11774	321.00403	-3659.05688	360.98416	52.20894	-3361.10083	436.22070	885.34528	-3508.97754	498.45215	1087.47961	-3564.12402	367.67841	460.31787	-3725.37988	299.40524	28.14746	-3468.57349	304.86380	613.06427	-3589.31787	86.44900	7.50044	
92	0.758																																																																																																																																																																						-3476.50781	332.78922	36.59395	-3499.78467	101.49995	50.37996	-3538.55029	418.99521	1419.59631	-3519.14404	359.89624	38.81775	-3622.81787	380.77209	26.23704	-3438.72070	191.69492	1659.13843	-3556.81519	208.30464	1729.42163	-3560.27856	397.04950	39.26169	-3509.54199	323.32819	44.45026	-3456.89795	85.55874	39.73817	-3513.19214	63.22629	46.14060	-3554.73828	300.62582	320.60834	-3659.13647	361.08478	52.01191	-3358.28174	435.32217	885.55536	-3507.17261	497.52563	1087.70129	-3563.31299	367.20163	460.22437	-3725.46875	299.54892	28.17480	-3457.74438	96.74158	568.60883	-3467.75732	303.78653	612.58258	-3589.41187	86.34991	7.48605	
93	0.767																																																																																																																																																																						-3476.80713	333.08005	37.01543	-3593.83154	9.46549	1417.71692	-3536.94019	416.90005	1419.28979	-3498.27344	103.17169	48.87484	-3519.21167	359.79886	38.81990	-3622.75537	380.82364	26.24017	-3560.25977	397.00003	39.00817	-3509.65942	323.32285	44.54201	-3457.32764	84.39493	39.41047	-3513.18433	63.24087	46.12350	-3554.68311	299.99515	320.04236	-3659.14160	361.18185	52.21936	-3355.58374	434.35815	886.02942	-3505.25073	495.68008	1087.24316	-3562.55566	367.18335	460.32990	-3725.50366	299.75595	28.28685	-3456.68164	97.20408	568.60980	-3589.52368	86.21181	7.37220	
94	0.775																																																																																																																																																																						-3477.05176	333.11462	37.26304	-3550.55200	43.58601	41.77520	-3535.02490	417.27429	1419.00732	-3498.22729	103.16257	48.87392	-3519.31079	359.93378	38.86448	-3622.78613	381.11002	26.10530	-3520.39941	52.03660	936.88452	-3465.51709	302.98950	611.84576	-3560.31323	397.16809	39.10471	-3509.78296	323.46548	44.59602	-3457.42285	84.22205	39.48757	-3513.20239	63.16644	46.08747	-3554.81909	299.36176	319.52423	-3659.22119	361.19519	52.17347	-3353.36377	434.76422	886.20264	-3725.49805	300.04166	28.44673	-3589.72510	85.92123	7.26708	
95	0.783																																																																																																																																																																						-3477.22803	332.93958	37.23764	-3434.31812	190.46791	1658.95325	-3550.54907	42.35669	38.67712	-3498.19995	103.12646	48.85849	-3519.35205	359.82495	38.66835	-3622.78369	381.16360	26.00741	-3464.07275	302.10550	611.91388	-3560.39185	397.24142	39.14951	-3501.63818	493.50372	1087.49792	-3509.60352	323.54550	44.34901	-3457.55859	84.15870	39.56523	-3554.81616	298.63620	319.25439	-3659.35229	360.99176	52.31787	-3351.17920	435.10138	886.26917	-3560.63843	366.18988	460.16757	-3725.53638	300.01865	28.43623	-3590.02588	85.53999	7.31341	
96	0.792																																																																																																																																																																						-3432.75903	189.50749	1658.80518	-3551.38867	43.29962	42.00833	-3472.67896	341.86578	938.82092	-3498.25903	102.95973	48.90350	-3519.39502	359.70590	38.64583	-3477.35962	334.60034	37.93365	-3462.45923	300.71591	611.79236	-3560.57715	394.57941	38.20684	-3499.75488	492.93521	1087.60352	-3509.68481	324.38098	44.12751	-3457.69971	85.17241	39.82082	-3523.83423	60.30529	457.30447	-3659.32568	361.33698	52.52024	-3348.46094	434.14496	886.62915	-3559.73608	365.14920	459.92334	-3551.21094	206.06195	1728.54517	-3725.49194	300.21585	28.50292	-3531.16870	413.10287	1418.83850	-3563.47363	135.56194	223.08968	-3590.33911	85.11510	7.18468	
97	0.800																																																																																																																																																																						-3454.11475	93.66101	568.25012	-3431.07764	188.32127	1658.82703	-3551.55859	42.82622	41.59917	-3471.20630	339.17642	938.87476	-3498.34790	103.15860	49.28710	-3519.48438	359.83655	38.72581	-3504.77930	50.89415	941.27167	-3477.46704	334.62833	38.03128	-3560.62964	394.68365	38.28363	-3509.85962	323.95932	44.13307	-3457.96533	84.85467	39.99237	-3526.40381	58.67703	456.86203	-3562.95361	294.25494	317.12784	-3659.44556	361.00772	52.47414	-3346.36816	433.61087	886.68396	-3558.03564	363.99298	459.66846	-3725.48438	300.41223	28.64634	-3529.19482	411.08752	1418.65247	-3563.14209	134.85054	223.06213	-3736.97583	134.07782	15.87512	-3502.27417	76.55402	37.81299	-3590.83154	84.54765	7.04546	
98	0.808																																																																																																																																																																						-3522.25000	59.34910	458.11957	-3552.36230	39.39971	40.33981	-3498.98560	102.09276	49.45509	-3519.61182	360.03012	38.78818	-3477.45898	334.60675	37.93159	-3471.30176	338.00919	938.11517	-3560.75220	394.81369	38.31908	-3456.20386	92.16467	567.04468	-3510.07349	324.36505	44.03551	-3458.39429	84.21774	40.37207	-3659.47168	361.17633	52.90887	-3344.34644	432.82425	886.27039	-3556.82837	363.61041	459.81512	-3559.79175	135.80836	224.19861	-3725.48779	300.50659	28.74566	-3527.08838	409.20975	1418.48291	-3738.22412	133.38335	15.59927	-3502.78418	75.85551	38.17145	-3636.58521	169.94414	42.31348	-3547.91235	202.88478	1728.33484	-3496.20459	489.56708	1087.39404	-3554.81152	296.34097	318.27957	-3591.29077	83.97734	6.81107	
99	0.817																																																																																																																																																																						-3581.49854	154.56770	55.08479	-3552.64868	38.26559	40.20279	-3456.14429	298.82578	610.95496	-3499.77710	100.83347	49.57476	-3519.56812	359.74548	38.56852	-3524.02368	57.04371	457.43036	-3477.43970	334.64545	37.90789	-3560.75854	394.93610	38.30299	-3510.24414	324.31467	43.96467	-3458.70752	83.78541	40.57682	-3427.65991	187.05833	1658.42273	-3659.41748	361.23416	53.11349	-3342.37231	432.85257	886.52307	-3554.61572	362.91983	459.40225	-3567.55957	136.96649	223.05429	-3725.42285	300.53473	28.75989	-3525.01147	408.15891	1418.64685	-3661.28784	165.41023	36.70469	-3503.06226	75.49201	38.22173	-3546.17969	201.63197	1728.58508	-3494.39868	490.00647	1088.07239	-3591.71509	83.27235	6.72904	
100	0.825																																																																																																																																																																						-3507.77295	44.06133	937.24969	-3583.79639	154.27740	54.72413	-3552.62646	35.89611	38.27395	-3500.05176	100.71848	49.74643	-3519.56372	359.66522	38.51486	-3477.25439	333.52036	37.44173	-3444.78076	257.79962	100.47698	-3560.76099	394.85364	38.19868	-3493.21948	321.89459	77.25314	-3510.35547	323.70627	44.33458	-3459.21167	83.31214	40.77111	-3425.90796	186.04573	1658.10815	-3659.35913	361.36093	53.44540	-3340.43384	433.10672	886.80603	-3552.28564	361.86328	458.56833	-3725.36230	300.45013	29.08012	-3523.05127	405.61420	1418.33057	-3503.36987	74.98775	38.16829	-3544.44824	199.90761	1728.22424	-3592.21802	82.58061	6.56471	
101	0.833																																																																																																																																																																						-3505.53247	42.37048	937.08240	-3583.50928	153.61395	55.17785	-3554.03442	36.50098	39.39165	-3520.99316	403.83401	1418.27783	-3500.08252	100.59542	49.69417	-3519.56909	359.56381	38.31937	-3450.78491	296.64978	610.29706	-3476.83667	333.29181	36.86591	-3560.80591	394.95108	38.28660	-3510.34790	323.66763	44.15776	-3459.55347	82.85357	40.97421	-3444.53394	257.27853	100.52887	-3659.17188	361.77777	54.42166	-3338.41235	433.00833	886.88104	-3725.23633	300.24686	29.10114	-3503.63159	74.50572	38.16117	-3542.52100	198.31976	1728.04541	-3592.74316	81.79177	6.59847	
102	0.842																																																																																																																																																																						-3503.54736	40.23485	936.93335	-3583.96265	152.99159	55.23553	-3554.64551	36.20356	39.70934	-3518.83472	401.96375	1417.75232	-3500.17358	100.39228	49.73999	-3519.49072	359.41336	38.27144	-3476.22070	332.51123	35.74210	-3458.92017	84.42505	42.30672	-3560.79346	395.12729	38.32678	-3455.07959	86.38136	566.19037	-3510.34033	323.26236	44.13898	-3422.10596	183.85065	1657.78906	-3658.99780	361.80783	54.82178	-3336.30005	433.35187	886.67542	-3545.23828	359.37003	457.35010	-3444.10303	256.77725	100.63687	-3724.92676	300.07138	29.22934	-3504.17700	73.79735	38.36945	-3540.50293	197.06253	1728.12085	-3593.04443	81.19478	6.33074	
